<mxfile host="app.diagrams.net" modified="2024-03-03T03:55:21.822Z" agent="Mozilla/5.0 (Windows NT 10.0; Win64; x64) AppleWebKit/537.36 (KHTML, like Gecko) Chrome/122.0.0.0 Safari/537.36 Edg/122.0.0.0" etag="4jRMR2_wK7xlgJLHoPnE" version="24.0.1" type="device">
  <diagram name="Page-1" id="szbqfBTVAvz-p_ofqPoW">
    <mxGraphModel dx="2253" dy="785" grid="1" gridSize="10" guides="1" tooltips="1" connect="1" arrows="1" fold="1" page="1" pageScale="1" pageWidth="827" pageHeight="1169" math="0" shadow="0">
      <root>
        <mxCell id="0" />
        <mxCell id="1" parent="0" />
        <mxCell id="RfQkgs-XgYyuAYGcQi1E-32" style="rounded=0;orthogonalLoop=1;jettySize=auto;html=1;exitX=0.5;exitY=1;exitDx=0;exitDy=0;entryX=0.5;entryY=0;entryDx=0;entryDy=0;endArrow=none;endFill=0;" edge="1" parent="1" source="RfQkgs-XgYyuAYGcQi1E-1" target="RfQkgs-XgYyuAYGcQi1E-7">
          <mxGeometry relative="1" as="geometry" />
        </mxCell>
        <mxCell id="RfQkgs-XgYyuAYGcQi1E-33" style="rounded=0;orthogonalLoop=1;jettySize=auto;html=1;exitX=0.5;exitY=1;exitDx=0;exitDy=0;entryX=0.5;entryY=0;entryDx=0;entryDy=0;endArrow=none;endFill=0;" edge="1" parent="1" source="RfQkgs-XgYyuAYGcQi1E-1" target="RfQkgs-XgYyuAYGcQi1E-8">
          <mxGeometry relative="1" as="geometry" />
        </mxCell>
        <mxCell id="RfQkgs-XgYyuAYGcQi1E-34" style="rounded=0;orthogonalLoop=1;jettySize=auto;html=1;exitX=0.5;exitY=1;exitDx=0;exitDy=0;entryX=0.5;entryY=0;entryDx=0;entryDy=0;endArrow=none;endFill=0;" edge="1" parent="1" source="RfQkgs-XgYyuAYGcQi1E-1" target="RfQkgs-XgYyuAYGcQi1E-6">
          <mxGeometry relative="1" as="geometry" />
        </mxCell>
        <mxCell id="RfQkgs-XgYyuAYGcQi1E-35" style="rounded=0;orthogonalLoop=1;jettySize=auto;html=1;exitX=0.5;exitY=1;exitDx=0;exitDy=0;entryX=0.5;entryY=0;entryDx=0;entryDy=0;endArrow=none;endFill=0;" edge="1" parent="1" source="RfQkgs-XgYyuAYGcQi1E-1" target="RfQkgs-XgYyuAYGcQi1E-3">
          <mxGeometry relative="1" as="geometry" />
        </mxCell>
        <mxCell id="RfQkgs-XgYyuAYGcQi1E-36" style="rounded=0;orthogonalLoop=1;jettySize=auto;html=1;exitX=0.5;exitY=1;exitDx=0;exitDy=0;entryX=0.5;entryY=0;entryDx=0;entryDy=0;endArrow=none;endFill=0;" edge="1" parent="1" source="RfQkgs-XgYyuAYGcQi1E-1" target="RfQkgs-XgYyuAYGcQi1E-5">
          <mxGeometry relative="1" as="geometry" />
        </mxCell>
        <mxCell id="RfQkgs-XgYyuAYGcQi1E-37" style="rounded=0;orthogonalLoop=1;jettySize=auto;html=1;exitX=0.5;exitY=1;exitDx=0;exitDy=0;entryX=0.5;entryY=0;entryDx=0;entryDy=0;endArrow=none;endFill=0;" edge="1" parent="1" source="RfQkgs-XgYyuAYGcQi1E-1" target="RfQkgs-XgYyuAYGcQi1E-2">
          <mxGeometry relative="1" as="geometry" />
        </mxCell>
        <mxCell id="RfQkgs-XgYyuAYGcQi1E-38" style="rounded=0;orthogonalLoop=1;jettySize=auto;html=1;exitX=0.5;exitY=1;exitDx=0;exitDy=0;entryX=0.5;entryY=0;entryDx=0;entryDy=0;endArrow=none;endFill=0;" edge="1" parent="1" source="RfQkgs-XgYyuAYGcQi1E-1" target="RfQkgs-XgYyuAYGcQi1E-4">
          <mxGeometry relative="1" as="geometry" />
        </mxCell>
        <mxCell id="RfQkgs-XgYyuAYGcQi1E-39" style="rounded=0;orthogonalLoop=1;jettySize=auto;html=1;exitX=0.5;exitY=1;exitDx=0;exitDy=0;entryX=0.5;entryY=0;entryDx=0;entryDy=0;endArrow=none;endFill=0;" edge="1" parent="1" source="RfQkgs-XgYyuAYGcQi1E-1" target="RfQkgs-XgYyuAYGcQi1E-16">
          <mxGeometry relative="1" as="geometry" />
        </mxCell>
        <mxCell id="RfQkgs-XgYyuAYGcQi1E-1" value="&lt;font style=&quot;font-size: 14px;&quot;&gt;Main&lt;/font&gt;" style="rounded=0;whiteSpace=wrap;html=1;" vertex="1" parent="1">
          <mxGeometry x="460" y="220" width="120" height="60" as="geometry" />
        </mxCell>
        <mxCell id="RfQkgs-XgYyuAYGcQi1E-2" value="&lt;font style=&quot;font-size: 14px;&quot;&gt;home&lt;/font&gt;" style="rounded=0;whiteSpace=wrap;html=1;" vertex="1" parent="1">
          <mxGeometry x="660" y="390" width="100" height="50" as="geometry" />
        </mxCell>
        <mxCell id="RfQkgs-XgYyuAYGcQi1E-3" value="&lt;font style=&quot;font-size: 14px;&quot;&gt;about&lt;/font&gt;" style="rounded=0;whiteSpace=wrap;html=1;" vertex="1" parent="1">
          <mxGeometry x="400" y="390" width="100" height="50" as="geometry" />
        </mxCell>
        <mxCell id="RfQkgs-XgYyuAYGcQi1E-25" style="rounded=0;orthogonalLoop=1;jettySize=auto;html=1;exitX=0.5;exitY=1;exitDx=0;exitDy=0;entryX=0.5;entryY=0;entryDx=0;entryDy=0;endArrow=none;endFill=0;" edge="1" parent="1" source="RfQkgs-XgYyuAYGcQi1E-4" target="RfQkgs-XgYyuAYGcQi1E-14">
          <mxGeometry relative="1" as="geometry" />
        </mxCell>
        <mxCell id="RfQkgs-XgYyuAYGcQi1E-4" value="&lt;font style=&quot;font-size: 14px;&quot;&gt;menu&lt;/font&gt;" style="rounded=0;whiteSpace=wrap;html=1;" vertex="1" parent="1">
          <mxGeometry x="790" y="390" width="100" height="50" as="geometry" />
        </mxCell>
        <mxCell id="RfQkgs-XgYyuAYGcQi1E-22" style="rounded=0;orthogonalLoop=1;jettySize=auto;html=1;exitX=0.5;exitY=1;exitDx=0;exitDy=0;entryX=0.5;entryY=0;entryDx=0;entryDy=0;endArrow=none;endFill=0;" edge="1" parent="1" source="RfQkgs-XgYyuAYGcQi1E-5" target="RfQkgs-XgYyuAYGcQi1E-12">
          <mxGeometry relative="1" as="geometry" />
        </mxCell>
        <mxCell id="RfQkgs-XgYyuAYGcQi1E-23" style="rounded=0;orthogonalLoop=1;jettySize=auto;html=1;exitX=0.5;exitY=1;exitDx=0;exitDy=0;endArrow=none;endFill=0;" edge="1" parent="1" source="RfQkgs-XgYyuAYGcQi1E-5" target="RfQkgs-XgYyuAYGcQi1E-13">
          <mxGeometry relative="1" as="geometry" />
        </mxCell>
        <mxCell id="RfQkgs-XgYyuAYGcQi1E-5" value="&lt;font style=&quot;font-size: 14px;&quot;&gt;login&lt;/font&gt;" style="rounded=0;whiteSpace=wrap;html=1;" vertex="1" parent="1">
          <mxGeometry x="530" y="390" width="100" height="50" as="geometry" />
        </mxCell>
        <mxCell id="RfQkgs-XgYyuAYGcQi1E-31" style="rounded=0;orthogonalLoop=1;jettySize=auto;html=1;exitX=0.5;exitY=1;exitDx=0;exitDy=0;entryX=0.5;entryY=0;entryDx=0;entryDy=0;endArrow=none;endFill=0;" edge="1" parent="1" source="RfQkgs-XgYyuAYGcQi1E-6" target="RfQkgs-XgYyuAYGcQi1E-30">
          <mxGeometry relative="1" as="geometry" />
        </mxCell>
        <mxCell id="RfQkgs-XgYyuAYGcQi1E-6" value="&lt;font style=&quot;font-size: 14px;&quot;&gt;cart_page&lt;/font&gt;" style="rounded=0;whiteSpace=wrap;html=1;" vertex="1" parent="1">
          <mxGeometry x="280" y="390" width="100" height="50" as="geometry" />
        </mxCell>
        <mxCell id="RfQkgs-XgYyuAYGcQi1E-19" style="rounded=0;orthogonalLoop=1;jettySize=auto;html=1;exitX=0.5;exitY=1;exitDx=0;exitDy=0;entryX=0.5;entryY=0;entryDx=0;entryDy=0;endArrow=none;endFill=0;" edge="1" parent="1" source="RfQkgs-XgYyuAYGcQi1E-7" target="RfQkgs-XgYyuAYGcQi1E-9">
          <mxGeometry relative="1" as="geometry" />
        </mxCell>
        <mxCell id="RfQkgs-XgYyuAYGcQi1E-20" style="rounded=0;orthogonalLoop=1;jettySize=auto;html=1;exitX=0.5;exitY=1;exitDx=0;exitDy=0;entryX=0.5;entryY=0;entryDx=0;entryDy=0;endArrow=none;endFill=0;" edge="1" parent="1" source="RfQkgs-XgYyuAYGcQi1E-7" target="RfQkgs-XgYyuAYGcQi1E-10">
          <mxGeometry relative="1" as="geometry" />
        </mxCell>
        <mxCell id="RfQkgs-XgYyuAYGcQi1E-21" style="rounded=0;orthogonalLoop=1;jettySize=auto;html=1;exitX=0.5;exitY=1;exitDx=0;exitDy=0;entryX=0.5;entryY=0;entryDx=0;entryDy=0;endArrow=none;endFill=0;" edge="1" parent="1" source="RfQkgs-XgYyuAYGcQi1E-7" target="RfQkgs-XgYyuAYGcQi1E-11">
          <mxGeometry relative="1" as="geometry" />
        </mxCell>
        <mxCell id="RfQkgs-XgYyuAYGcQi1E-7" value="&lt;font style=&quot;font-size: 14px;&quot;&gt;admin&lt;/font&gt;" style="rounded=0;whiteSpace=wrap;html=1;" vertex="1" parent="1">
          <mxGeometry x="20" y="390" width="100" height="50" as="geometry" />
        </mxCell>
        <mxCell id="RfQkgs-XgYyuAYGcQi1E-8" value="&lt;font style=&quot;font-size: 14px;&quot;&gt;logout&lt;/font&gt;" style="rounded=0;whiteSpace=wrap;html=1;" vertex="1" parent="1">
          <mxGeometry x="150" y="390" width="100" height="50" as="geometry" />
        </mxCell>
        <mxCell id="RfQkgs-XgYyuAYGcQi1E-9" value="&lt;font style=&quot;font-size: 10px;&quot;&gt;delivery_frequency&lt;/font&gt;" style="rounded=0;whiteSpace=wrap;html=1;" vertex="1" parent="1">
          <mxGeometry x="-110" y="540" width="100" height="50" as="geometry" />
        </mxCell>
        <mxCell id="RfQkgs-XgYyuAYGcQi1E-10" value="&lt;font style=&quot;font-size: 14px;&quot;&gt;product_sales&lt;/font&gt;" style="rounded=0;whiteSpace=wrap;html=1;" vertex="1" parent="1">
          <mxGeometry x="20" y="540" width="100" height="50" as="geometry" />
        </mxCell>
        <mxCell id="RfQkgs-XgYyuAYGcQi1E-11" value="&lt;font style=&quot;font-size: 14px;&quot;&gt;total_sales&lt;/font&gt;" style="rounded=0;whiteSpace=wrap;html=1;" vertex="1" parent="1">
          <mxGeometry x="150" y="540" width="100" height="50" as="geometry" />
        </mxCell>
        <mxCell id="RfQkgs-XgYyuAYGcQi1E-29" style="rounded=0;orthogonalLoop=1;jettySize=auto;html=1;exitX=0.5;exitY=1;exitDx=0;exitDy=0;entryX=0.5;entryY=0;entryDx=0;entryDy=0;endArrow=none;endFill=0;" edge="1" parent="1" source="RfQkgs-XgYyuAYGcQi1E-12" target="RfQkgs-XgYyuAYGcQi1E-28">
          <mxGeometry relative="1" as="geometry" />
        </mxCell>
        <mxCell id="RfQkgs-XgYyuAYGcQi1E-12" value="&lt;font style=&quot;font-size: 14px;&quot;&gt;action_signup&lt;/font&gt;" style="rounded=0;whiteSpace=wrap;html=1;" vertex="1" parent="1">
          <mxGeometry x="470" y="540" width="100" height="50" as="geometry" />
        </mxCell>
        <mxCell id="RfQkgs-XgYyuAYGcQi1E-24" style="rounded=0;orthogonalLoop=1;jettySize=auto;html=1;exitX=0.5;exitY=1;exitDx=0;exitDy=0;endArrow=none;endFill=0;" edge="1" parent="1" source="RfQkgs-XgYyuAYGcQi1E-13" target="RfQkgs-XgYyuAYGcQi1E-15">
          <mxGeometry relative="1" as="geometry" />
        </mxCell>
        <mxCell id="RfQkgs-XgYyuAYGcQi1E-13" value="&lt;font style=&quot;font-size: 14px;&quot;&gt;action_login&lt;/font&gt;" style="rounded=0;whiteSpace=wrap;html=1;" vertex="1" parent="1">
          <mxGeometry x="590" y="540" width="100" height="50" as="geometry" />
        </mxCell>
        <mxCell id="RfQkgs-XgYyuAYGcQi1E-14" value="&lt;font style=&quot;font-size: 14px;&quot;&gt;create_product&lt;/font&gt;" style="rounded=0;whiteSpace=wrap;html=1;" vertex="1" parent="1">
          <mxGeometry x="790" y="540" width="100" height="50" as="geometry" />
        </mxCell>
        <mxCell id="RfQkgs-XgYyuAYGcQi1E-15" value="&lt;span style=&quot;font-size: 14px;&quot;&gt;load_user&lt;/span&gt;" style="rounded=0;whiteSpace=wrap;html=1;" vertex="1" parent="1">
          <mxGeometry x="590" y="690" width="100" height="50" as="geometry" />
        </mxCell>
        <mxCell id="RfQkgs-XgYyuAYGcQi1E-26" style="rounded=0;orthogonalLoop=1;jettySize=auto;html=1;exitX=0.5;exitY=1;exitDx=0;exitDy=0;entryX=0.5;entryY=0;entryDx=0;entryDy=0;endArrow=none;endFill=0;" edge="1" parent="1" source="RfQkgs-XgYyuAYGcQi1E-16" target="RfQkgs-XgYyuAYGcQi1E-18">
          <mxGeometry relative="1" as="geometry" />
        </mxCell>
        <mxCell id="RfQkgs-XgYyuAYGcQi1E-27" style="rounded=0;orthogonalLoop=1;jettySize=auto;html=1;exitX=0.5;exitY=1;exitDx=0;exitDy=0;entryX=0.5;entryY=0;entryDx=0;entryDy=0;endArrow=none;endFill=0;" edge="1" parent="1" source="RfQkgs-XgYyuAYGcQi1E-16" target="RfQkgs-XgYyuAYGcQi1E-17">
          <mxGeometry relative="1" as="geometry" />
        </mxCell>
        <mxCell id="RfQkgs-XgYyuAYGcQi1E-16" value="&lt;font style=&quot;font-size: 14px;&quot;&gt;Product&lt;/font&gt;" style="rounded=0;whiteSpace=wrap;html=1;" vertex="1" parent="1">
          <mxGeometry x="920" y="390" width="100" height="50" as="geometry" />
        </mxCell>
        <mxCell id="RfQkgs-XgYyuAYGcQi1E-17" value="Customisable&lt;div&gt;Product&lt;/div&gt;" style="rounded=0;whiteSpace=wrap;html=1;" vertex="1" parent="1">
          <mxGeometry x="920" y="540" width="100" height="50" as="geometry" />
        </mxCell>
        <mxCell id="RfQkgs-XgYyuAYGcQi1E-18" value="Product&lt;div&gt;Option&lt;/div&gt;" style="rounded=0;whiteSpace=wrap;html=1;" vertex="1" parent="1">
          <mxGeometry x="1050" y="540" width="100" height="50" as="geometry" />
        </mxCell>
        <mxCell id="RfQkgs-XgYyuAYGcQi1E-28" value="&lt;font style=&quot;font-size: 14px;&quot;&gt;User&lt;/font&gt;" style="rounded=0;whiteSpace=wrap;html=1;" vertex="1" parent="1">
          <mxGeometry x="470" y="690" width="100" height="50" as="geometry" />
        </mxCell>
        <mxCell id="RfQkgs-XgYyuAYGcQi1E-30" value="&lt;font style=&quot;font-size: 14px;&quot;&gt;Order&lt;/font&gt;" style="rounded=0;whiteSpace=wrap;html=1;" vertex="1" parent="1">
          <mxGeometry x="280" y="540" width="100" height="50" as="geometry" />
        </mxCell>
        <mxCell id="RfQkgs-XgYyuAYGcQi1E-41" value="" style="endArrow=classic;html=1;rounded=0;startArrow=oval;startFill=0;" edge="1" parent="1">
          <mxGeometry width="50" height="50" relative="1" as="geometry">
            <mxPoint x="-40" y="510" as="sourcePoint" />
            <mxPoint x="10" y="470" as="targetPoint" />
          </mxGeometry>
        </mxCell>
        <mxCell id="RfQkgs-XgYyuAYGcQi1E-42" value="delivery_frequency" style="text;html=1;align=center;verticalAlign=middle;resizable=0;points=[];autosize=1;strokeColor=none;fillColor=none;" vertex="1" parent="1">
          <mxGeometry x="-130" y="468" width="120" height="30" as="geometry" />
        </mxCell>
        <mxCell id="RfQkgs-XgYyuAYGcQi1E-43" value="" style="endArrow=classic;html=1;rounded=0;startArrow=oval;startFill=0;" edge="1" parent="1">
          <mxGeometry width="50" height="50" relative="1" as="geometry">
            <mxPoint x="60" y="520" as="sourcePoint" />
            <mxPoint x="60" y="470" as="targetPoint" />
          </mxGeometry>
        </mxCell>
        <mxCell id="RfQkgs-XgYyuAYGcQi1E-44" value="product_sales" style="text;html=1;align=center;verticalAlign=middle;resizable=0;points=[];autosize=1;strokeColor=none;fillColor=none;rotation=-88;" vertex="1" parent="1">
          <mxGeometry y="480" width="100" height="30" as="geometry" />
        </mxCell>
        <mxCell id="RfQkgs-XgYyuAYGcQi1E-45" value="" style="endArrow=classic;html=1;rounded=0;startArrow=oval;startFill=0;" edge="1" parent="1">
          <mxGeometry width="50" height="50" relative="1" as="geometry">
            <mxPoint x="160" y="520" as="sourcePoint" />
            <mxPoint x="110" y="480" as="targetPoint" />
          </mxGeometry>
        </mxCell>
        <mxCell id="RfQkgs-XgYyuAYGcQi1E-46" value="total_sales" style="text;html=1;align=center;verticalAlign=middle;resizable=0;points=[];autosize=1;strokeColor=none;fillColor=none;rotation=40;" vertex="1" parent="1">
          <mxGeometry x="90" y="498" width="80" height="30" as="geometry" />
        </mxCell>
        <mxCell id="RfQkgs-XgYyuAYGcQi1E-47" value="" style="endArrow=classic;html=1;rounded=0;startArrow=oval;startFill=0;" edge="1" parent="1">
          <mxGeometry width="50" height="50" relative="1" as="geometry">
            <mxPoint x="140" y="480" as="sourcePoint" />
            <mxPoint x="180" y="510" as="targetPoint" />
          </mxGeometry>
        </mxCell>
        <mxCell id="RfQkgs-XgYyuAYGcQi1E-50" value="all_orders" style="text;html=1;align=center;verticalAlign=middle;resizable=0;points=[];autosize=1;strokeColor=none;fillColor=none;" vertex="1" parent="1">
          <mxGeometry x="150" y="468" width="80" height="30" as="geometry" />
        </mxCell>
        <mxCell id="RfQkgs-XgYyuAYGcQi1E-51" value="" style="endArrow=classic;html=1;rounded=0;startArrow=oval;startFill=0;" edge="1" parent="1">
          <mxGeometry width="50" height="50" relative="1" as="geometry">
            <mxPoint x="80" y="470" as="sourcePoint" />
            <mxPoint x="80" y="528" as="targetPoint" />
          </mxGeometry>
        </mxCell>
        <mxCell id="RfQkgs-XgYyuAYGcQi1E-52" value="all_orders" style="text;html=1;align=center;verticalAlign=middle;resizable=0;points=[];autosize=1;strokeColor=none;fillColor=none;rotation=90;" vertex="1" parent="1">
          <mxGeometry x="50" y="480" width="80" height="30" as="geometry" />
        </mxCell>
        <mxCell id="RfQkgs-XgYyuAYGcQi1E-53" value="" style="endArrow=classic;html=1;rounded=0;startArrow=oval;startFill=0;" edge="1" parent="1">
          <mxGeometry width="50" height="50" relative="1" as="geometry">
            <mxPoint x="20" y="490" as="sourcePoint" />
            <mxPoint x="-30" y="530" as="targetPoint" />
          </mxGeometry>
        </mxCell>
        <mxCell id="RfQkgs-XgYyuAYGcQi1E-54" value="all_orders" style="text;html=1;align=center;verticalAlign=middle;resizable=0;points=[];autosize=1;strokeColor=none;fillColor=none;rotation=323;" vertex="1" parent="1">
          <mxGeometry x="-30" y="500" width="80" height="30" as="geometry" />
        </mxCell>
        <mxCell id="RfQkgs-XgYyuAYGcQi1E-55" value="" style="endArrow=classic;html=1;rounded=0;startArrow=oval;startFill=0;" edge="1" parent="1">
          <mxGeometry width="50" height="50" relative="1" as="geometry">
            <mxPoint x="340" y="460" as="sourcePoint" />
            <mxPoint x="340" y="520" as="targetPoint" />
          </mxGeometry>
        </mxCell>
        <mxCell id="RfQkgs-XgYyuAYGcQi1E-56" value="current_user&lt;div&gt;cart&lt;/div&gt;&lt;div&gt;delivery&lt;/div&gt;&lt;div&gt;today&lt;/div&gt;&lt;div&gt;total&lt;/div&gt;" style="text;html=1;align=left;verticalAlign=middle;resizable=0;points=[];autosize=1;strokeColor=none;fillColor=none;" vertex="1" parent="1">
          <mxGeometry x="350" y="440" width="90" height="90" as="geometry" />
        </mxCell>
        <mxCell id="RfQkgs-XgYyuAYGcQi1E-57" value="" style="endArrow=classic;html=1;rounded=0;startArrow=oval;startFill=0;" edge="1" parent="1">
          <mxGeometry width="50" height="50" relative="1" as="geometry">
            <mxPoint x="600" y="468" as="sourcePoint" />
            <mxPoint x="630" y="530" as="targetPoint" />
          </mxGeometry>
        </mxCell>
        <mxCell id="RfQkgs-XgYyuAYGcQi1E-58" value="cust_id&lt;div&gt;password&lt;/div&gt;" style="text;html=1;align=left;verticalAlign=middle;resizable=0;points=[];autosize=1;strokeColor=none;fillColor=none;" vertex="1" parent="1">
          <mxGeometry x="620" y="470" width="70" height="40" as="geometry" />
        </mxCell>
        <mxCell id="RfQkgs-XgYyuAYGcQi1E-59" value="" style="endArrow=classic;html=1;rounded=0;startArrow=oval;startFill=0;" edge="1" parent="1">
          <mxGeometry width="50" height="50" relative="1" as="geometry">
            <mxPoint x="560" y="460" as="sourcePoint" />
            <mxPoint x="520" y="525" as="targetPoint" />
          </mxGeometry>
        </mxCell>
        <mxCell id="RfQkgs-XgYyuAYGcQi1E-60" value="first_name&lt;div style=&quot;font-size: 10px;&quot;&gt;last_name&lt;br style=&quot;font-size: 10px;&quot;&gt;cust_id&lt;br style=&quot;font-size: 10px;&quot;&gt;address&lt;br style=&quot;font-size: 10px;&quot;&gt;email&lt;br style=&quot;font-size: 10px;&quot;&gt;password&lt;br style=&quot;font-size: 10px;&quot;&gt;loyalty&lt;/div&gt;" style="text;html=1;align=right;verticalAlign=middle;resizable=0;points=[];autosize=1;strokeColor=none;fillColor=none;fontSize=10;" vertex="1" parent="1">
          <mxGeometry x="450" y="440" width="70" height="100" as="geometry" />
        </mxCell>
        <mxCell id="RfQkgs-XgYyuAYGcQi1E-61" value="" style="endArrow=classic;html=1;rounded=0;startArrow=oval;startFill=0;" edge="1" parent="1">
          <mxGeometry width="50" height="50" relative="1" as="geometry">
            <mxPoint x="510" y="605" as="sourcePoint" />
            <mxPoint x="510" y="660" as="targetPoint" />
          </mxGeometry>
        </mxCell>
        <mxCell id="RfQkgs-XgYyuAYGcQi1E-62" value="first_name&lt;div style=&quot;font-size: 10px;&quot;&gt;last_name&lt;br style=&quot;font-size: 10px;&quot;&gt;cust_id&lt;br style=&quot;font-size: 10px;&quot;&gt;address&lt;br style=&quot;font-size: 10px;&quot;&gt;email&lt;br style=&quot;font-size: 10px;&quot;&gt;password&lt;br style=&quot;font-size: 10px;&quot;&gt;loyalty&lt;/div&gt;" style="text;html=1;align=right;verticalAlign=middle;resizable=0;points=[];autosize=1;strokeColor=none;fillColor=none;fontSize=10;" vertex="1" parent="1">
          <mxGeometry x="430" y="590" width="70" height="100" as="geometry" />
        </mxCell>
        <mxCell id="RfQkgs-XgYyuAYGcQi1E-63" value="" style="endArrow=classic;html=1;rounded=0;startArrow=oval;startFill=0;" edge="1" parent="1">
          <mxGeometry width="50" height="50" relative="1" as="geometry">
            <mxPoint x="650" y="610" as="sourcePoint" />
            <mxPoint x="650" y="665" as="targetPoint" />
          </mxGeometry>
        </mxCell>
        <mxCell id="RfQkgs-XgYyuAYGcQi1E-65" value="cust_id" style="text;html=1;align=left;verticalAlign=middle;resizable=0;points=[];autosize=1;strokeColor=none;fillColor=none;" vertex="1" parent="1">
          <mxGeometry x="650" y="615" width="60" height="30" as="geometry" />
        </mxCell>
        <mxCell id="RfQkgs-XgYyuAYGcQi1E-66" value="" style="endArrow=classic;html=1;rounded=0;startArrow=oval;startFill=0;" edge="1" parent="1">
          <mxGeometry width="50" height="50" relative="1" as="geometry">
            <mxPoint x="630" y="660" as="sourcePoint" />
            <mxPoint x="630" y="610" as="targetPoint" />
          </mxGeometry>
        </mxCell>
        <mxCell id="RfQkgs-XgYyuAYGcQi1E-67" value="User" style="text;html=1;align=left;verticalAlign=middle;resizable=0;points=[];autosize=1;strokeColor=none;fillColor=none;" vertex="1" parent="1">
          <mxGeometry x="590" y="615" width="50" height="30" as="geometry" />
        </mxCell>
        <mxCell id="RfQkgs-XgYyuAYGcQi1E-68" value="product_name&lt;div&gt;options&lt;/div&gt;" style="text;html=1;align=left;verticalAlign=middle;resizable=0;points=[];autosize=1;strokeColor=none;fillColor=none;" vertex="1" parent="1">
          <mxGeometry x="850" y="467.5" width="100" height="40" as="geometry" />
        </mxCell>
        <mxCell id="RfQkgs-XgYyuAYGcQi1E-69" value="" style="endArrow=classic;html=1;rounded=0;startArrow=oval;startFill=0;" edge="1" parent="1">
          <mxGeometry width="50" height="50" relative="1" as="geometry">
            <mxPoint x="850" y="467.5" as="sourcePoint" />
            <mxPoint x="850" y="522.5" as="targetPoint" />
          </mxGeometry>
        </mxCell>
        <mxCell id="RfQkgs-XgYyuAYGcQi1E-70" value="Product" style="text;html=1;align=left;verticalAlign=middle;resizable=0;points=[];autosize=1;strokeColor=none;fillColor=none;" vertex="1" parent="1">
          <mxGeometry x="780" y="470" width="60" height="30" as="geometry" />
        </mxCell>
        <mxCell id="RfQkgs-XgYyuAYGcQi1E-71" value="" style="endArrow=classic;html=1;rounded=0;startArrow=oval;startFill=0;" edge="1" parent="1">
          <mxGeometry width="50" height="50" relative="1" as="geometry">
            <mxPoint x="830" y="515" as="sourcePoint" />
            <mxPoint x="830" y="465" as="targetPoint" />
          </mxGeometry>
        </mxCell>
        <mxCell id="RfQkgs-XgYyuAYGcQi1E-72" value="products" style="text;html=1;align=left;verticalAlign=middle;resizable=0;points=[];autosize=1;strokeColor=none;fillColor=none;" vertex="1" parent="1">
          <mxGeometry x="827" y="320" width="70" height="30" as="geometry" />
        </mxCell>
        <mxCell id="RfQkgs-XgYyuAYGcQi1E-73" value="" style="endArrow=classic;html=1;rounded=0;startArrow=oval;startFill=0;" edge="1" parent="1">
          <mxGeometry width="50" height="50" relative="1" as="geometry">
            <mxPoint x="890" y="360" as="sourcePoint" />
            <mxPoint x="800" y="340" as="targetPoint" />
          </mxGeometry>
        </mxCell>
        <mxCell id="RfQkgs-XgYyuAYGcQi1E-74" value="" style="endArrow=classic;html=1;rounded=0;startArrow=oval;startFill=0;" edge="1" parent="1">
          <mxGeometry width="50" height="50" relative="1" as="geometry">
            <mxPoint x="780" y="380" as="sourcePoint" />
            <mxPoint x="690" y="350" as="targetPoint" />
          </mxGeometry>
        </mxCell>
        <mxCell id="RfQkgs-XgYyuAYGcQi1E-75" value="cart" style="text;html=1;align=left;verticalAlign=middle;resizable=0;points=[];autosize=1;strokeColor=none;fillColor=none;" vertex="1" parent="1">
          <mxGeometry x="720" y="360" width="40" height="30" as="geometry" />
        </mxCell>
        <mxCell id="RfQkgs-XgYyuAYGcQi1E-79" value="" style="endArrow=classic;html=1;rounded=0;startArrow=oval;startFill=0;" edge="1" parent="1">
          <mxGeometry width="50" height="50" relative="1" as="geometry">
            <mxPoint x="740" y="350" as="sourcePoint" />
            <mxPoint x="810" y="375" as="targetPoint" />
          </mxGeometry>
        </mxCell>
        <mxCell id="RfQkgs-XgYyuAYGcQi1E-80" value="products" style="text;html=1;align=left;verticalAlign=middle;resizable=0;points=[];autosize=1;strokeColor=none;fillColor=none;rotation=20;" vertex="1" parent="1">
          <mxGeometry x="747" y="339" width="70" height="30" as="geometry" />
        </mxCell>
        <mxCell id="RfQkgs-XgYyuAYGcQi1E-83" value="User" style="text;html=1;align=left;verticalAlign=middle;resizable=0;points=[];autosize=1;strokeColor=none;fillColor=none;" vertex="1" parent="1">
          <mxGeometry x="570" y="490" width="50" height="30" as="geometry" />
        </mxCell>
        <mxCell id="RfQkgs-XgYyuAYGcQi1E-84" value="" style="endArrow=classic;html=1;rounded=0;startArrow=oval;startFill=0;" edge="1" parent="1">
          <mxGeometry width="50" height="50" relative="1" as="geometry">
            <mxPoint x="610" y="520" as="sourcePoint" />
            <mxPoint x="590" y="470" as="targetPoint" />
          </mxGeometry>
        </mxCell>
        <mxCell id="RfQkgs-XgYyuAYGcQi1E-86" value="" style="endArrow=classic;html=1;rounded=0;startArrow=oval;startFill=0;" edge="1" parent="1">
          <mxGeometry width="50" height="50" relative="1" as="geometry">
            <mxPoint x="560" y="379" as="sourcePoint" />
            <mxPoint x="540" y="329" as="targetPoint" />
          </mxGeometry>
        </mxCell>
        <mxCell id="RfQkgs-XgYyuAYGcQi1E-87" value="User" style="text;html=1;align=left;verticalAlign=middle;resizable=0;points=[];autosize=1;strokeColor=none;fillColor=none;" vertex="1" parent="1">
          <mxGeometry x="520" y="349" width="50" height="30" as="geometry" />
        </mxCell>
        <mxCell id="RfQkgs-XgYyuAYGcQi1E-88" value="" style="endArrow=classic;html=1;rounded=0;startArrow=oval;startFill=0;" edge="1" parent="1">
          <mxGeometry width="50" height="50" relative="1" as="geometry">
            <mxPoint x="340" y="350" as="sourcePoint" />
            <mxPoint x="280" y="369" as="targetPoint" />
          </mxGeometry>
        </mxCell>
        <mxCell id="RfQkgs-XgYyuAYGcQi1E-89" value="User" style="text;html=1;align=left;verticalAlign=middle;resizable=0;points=[];autosize=1;strokeColor=none;fillColor=none;" vertex="1" parent="1">
          <mxGeometry x="300" y="360" width="50" height="30" as="geometry" />
        </mxCell>
        <mxCell id="RfQkgs-XgYyuAYGcQi1E-90" value="" style="endArrow=classic;html=1;rounded=0;startArrow=oval;startFill=0;" edge="1" parent="1">
          <mxGeometry width="50" height="50" relative="1" as="geometry">
            <mxPoint x="440" y="340" as="sourcePoint" />
            <mxPoint x="369" y="379" as="targetPoint" />
          </mxGeometry>
        </mxCell>
        <mxCell id="RfQkgs-XgYyuAYGcQi1E-91" value="cart" style="text;html=1;align=left;verticalAlign=middle;resizable=0;points=[];autosize=1;strokeColor=none;fillColor=none;" vertex="1" parent="1">
          <mxGeometry x="400" y="350" width="40" height="30" as="geometry" />
        </mxCell>
        <mxCell id="RfQkgs-XgYyuAYGcQi1E-95" value="User" style="text;html=1;align=left;verticalAlign=middle;resizable=0;points=[];autosize=1;strokeColor=none;fillColor=none;" vertex="1" parent="1">
          <mxGeometry x="154" y="334" width="50" height="30" as="geometry" />
        </mxCell>
        <mxCell id="RfQkgs-XgYyuAYGcQi1E-96" value="" style="endArrow=classic;html=1;rounded=0;startArrow=oval;startFill=0;" edge="1" parent="1">
          <mxGeometry width="50" height="50" relative="1" as="geometry">
            <mxPoint x="215" y="345" as="sourcePoint" />
            <mxPoint x="140" y="364" as="targetPoint" />
          </mxGeometry>
        </mxCell>
      </root>
    </mxGraphModel>
  </diagram>
</mxfile>
